<svg xmlns="http://www.w3.org/2000/svg" viewBox="0 0 96 96">
  <!-- bell outline with clapper closer -->
  <path d="M48 8a4 4 0 0 0-4 4v4.2C32.1 18.5 22 29.8 22 43.5V60l-6 6v4h64v-4l-6-6V43.5c0-13.7-10.1-25-22-27.3V12a4 4 0 0 0-4-4zM48 80a10 10 0 0 0 10-10H38a10 10 0 0 0 10 10z" fill="#fff"/>

  <!-- Z arrows inside bell, moved up -->
  <g transform="translate(24, 22) scale(0.065)">
    <path d="M566.66 527.25c0 33.03-24.23 60.05-53.84 60.05H260.29c-29.61 0-53.84-27.02-53.84-60.05 0-20.22 9.09-38.2 22.93-49.09l134.37-120c2.5-2.14 5.74 1.31 3.94 4.19l-49.29 98.69c-1.38 2.76.41 6.16 3.25 6.16h191.18c29.61 0 53.83 27.03 53.83 60.05zm0-281.39c0 20.22-9.09 38.2-22.93 49.09l-134.37 120c-2.5 2.14-5.74-1.31-3.94-4.19l49.29-98.69c1.38-2.76-.41-6.16-3.25-6.16H260.29c-29.61 0-53.84-27.02-53.84-60.05s24.23-60.05 53.84-60.05h252.54c29.61 0 53.83 27.02 53.83 60.05z" fill="#000"/>
  </g>
</svg>
